<svg xmlns="http://www.w3.org/2000/svg" width="640" height="236" viewBox="0 0 640 236" role="img" aria-label="Top languages">
<style>
.mono { font-family: ui-monospace, 'SFMono-Regular', Menlo, Consolas, monospace; }
.bar { transform-origin: 150px 0; animation: grow 1.2s cubic-bezier(0.4, 0, 0.2, 1) forwards; transform: scaleX(0); }
@keyframes grow { to { transform: scaleX(1); } }
@media (prefers-reduced-motion: reduce) { .bar { animation: none; transform: none; } }
</style>
<rect width="640" height="236" fill="#0d1117"/>
<rect x="10.5" y="10.5" width="619" height="215" fill="none" stroke="#30363d" stroke-width="1"/>
<text class="mono" x="28" y="40" font-size="12" fill="#2dd4bf" letter-spacing="4">TOP LANGUAGES</text>
<text class="mono" x="612" y="40" font-size="10" fill="#8b949e" letter-spacing="1" text-anchor="end">BY BYTES OF CODE</text>
<path d="M28 50h584" stroke="#30363d" stroke-width="1"/>
<text class="mono" x="28" y="78" font-size="12" fill="#e6edf3">TypeScript</text>
<rect class="bar" style="animation-delay:0.00s" x="150" y="70" width="380.0" height="8" rx="4" fill="#3987e5"/>
<text class="mono" x="620" y="78" font-size="11" fill="#8b949e" text-anchor="end">88.4%</text>
<text class="mono" x="28" y="104" font-size="12" fill="#e6edf3">Lua</text>
<rect class="bar" style="animation-delay:0.12s" x="150" y="96" width="22.7" height="8" rx="4" fill="#9085e9"/>
<text class="mono" x="620" y="104" font-size="11" fill="#8b949e" text-anchor="end">5.3%</text>
<text class="mono" x="28" y="130" font-size="12" fill="#e6edf3">Rust</text>
<rect class="bar" style="animation-delay:0.24s" x="150" y="122" width="13.8" height="8" rx="4" fill="#c98500"/>
<text class="mono" x="620" y="130" font-size="11" fill="#8b949e" text-anchor="end">3.2%</text>
<text class="mono" x="28" y="156" font-size="12" fill="#e6edf3">Python</text>
<rect class="bar" style="animation-delay:0.36s" x="150" y="148" width="8.0" height="8" rx="4" fill="#e66767"/>
<text class="mono" x="620" y="156" font-size="11" fill="#8b949e" text-anchor="end">1.3%</text>
<text class="mono" x="28" y="182" font-size="12" fill="#e6edf3">Go</text>
<rect class="bar" style="animation-delay:0.48s" x="150" y="174" width="8.0" height="8" rx="4" fill="#0d9488"/>
<text class="mono" x="620" y="182" font-size="11" fill="#8b949e" text-anchor="end">0.5%</text>
<text class="mono" x="28" y="208" font-size="12" fill="#e6edf3">Shell</text>
<rect class="bar" style="animation-delay:0.60s" x="150" y="200" width="8.0" height="8" rx="4" fill="#d55181"/>
<text class="mono" x="620" y="208" font-size="11" fill="#8b949e" text-anchor="end">0.4%</text>
</svg>